PathFileType	4	(X/Y/Z)	S01_0007_Gait_markers.trc
DataRate	CameraRate	NumFrames	NumMarkers	Units	OrigDataRate	OrigDataStartFrame	OrigNumFrames
250.000000	250.000000	4	54	mm	250.000000	264	302
Frame#	Time	HEAD_ANT			R_HEAD			L_HEAD			C7			R_BACK			L_BACK			STERNUM			R_ACROMION			R_HUM_PROX			R_HUM_ANT			R_HUM_POST			R_ELBOW_LAT			R_ELBOW_MED			R_FOREARM			R_WIRST_LAT			R_WRITS_MED			R_HAND			L_ACROMION			L_HUM_PROX			L_HUM_ANT			L_HUM_POST			L_ELBOW_LAT			L_ELBOW_MED			L_FOREARM			L_WRIST_LAT			L_WIRST_MED			L_HAND			R_ILIAC			SACRUM			L_ILIAC			R_GTROCH			R_THIGH__1			R_THIGH_2			R_THIGH_3			R_THIGH_4			R_SHANK_1			R_SHANK_2			R_SHANK_3			R_SHANK_4			R_HEEL			R_FOOT_LAT			R_FOOT_MED			L_GTROCH			L_THIGH_1			L_THIGH_2			L_THIGH_3			L_THIGH_4			L_SHANK_1			L_SHANK_2			L_SHANK_3			L_SHANK_4			L_HEEL			L_FOOT_LAT			L_FOOT_MED			
		X1	Y1	Z1	X2	Y2	Z2	X3	Y3	Z3	X4	Y4	Z4	X5	Y5	Z5	X6	Y6	Z6	X7	Y7	Z7	X8	Y8	Z8	X9	Y9	Z9	X10	Y10	Z10	X11	Y11	Z11	X12	Y12	Z12	X13	Y13	Z13	X14	Y14	Z14	X15	Y15	Z15	X16	Y16	Z16	X17	Y17	Z17	X18	Y18	Z18	X19	Y19	Z19	X20	Y20	Z20	X21	Y21	Z21	X22	Y22	Z22	X23	Y23	Z23	X24	Y24	Z24	X25	Y25	Z25	X26	Y26	Z26	X27	Y27	Z27	X28	Y28	Z28	X29	Y29	Z29	X30	Y30	Z30	X31	Y31	Z31	X32	Y32	Z32	X33	Y33	Z33	X34	Y34	Z34	X35	Y35	Z35	X36	Y36	Z36	X37	Y37	Z37	X38	Y38	Z38	X39	Y39	Z39	X40	Y40	Z40	X41	Y41	Z41	X42	Y42	Z42	X43	Y43	Z43	X44	Y44	Z44	X45	Y45	Z45	X46	Y46	Z46	X47	Y47	Z47	X48	Y48	Z48	X49	Y49	Z49	X50	Y50	Z50	X51	Y51	Z51	X52	Y52	Z52	X53	Y53	Z53	X54	Y54	Z54	

265	1.056	1683.41748046875	1723.3828125	-385.5014038085934	1623.771728515625	1669.0537109375	-308.8429565429684	1626.944091796875	1673.844970703125	-456.7001953124996	1488.240234375	1502.723876953125	-388.2386474609372	1413.90869140625	1305.884399414062	-322.518859863281	1414.968017578125	1310.885864257812	-463.8462219238278	1666.30517578125	1337.10888671875	-381.536193847656	1558.787841796875	1452.640502929688	-212.2036285400387	1503.21142578125	1298.323364257812	-120.4896850585935	1556.377563476562	1208.143188476562	-110.0626602172849	1435.50634765625	1221.793090820312	-109.5968933105466	1473.23779296875	1110.977294921875	-92.81219482421851	1452.683959960938	1105.286499023438	-174.1321258544919	1578.972412109375	928.90966796875	-91.63489532470682	1621.179565429688	865.8977661132812	-131.336715698242	1552.437744140625	838.4639282226562	-96.21481323242169	1623.7421875	775.984130859375	-78.03440093994124	1576.619018554688	1455.580688476563	-551.1237792968747	1571.134155273438	1292.80810546875	-649.9066162109372	1637.813110351562	1216.189453125	-643.4284057617185	1521.49365234375	1212.851440429688	-685.3442382812498	1589.3681640625	1112.819946289063	-689.5639038085935	1530.440551757812	1097.893188476563	-639.0113525390623	1727.454223632812	969.7864990234376	-634.2011718749998	1766.149658203125	928.0518188476564	-573.5077514648435	1736.408203125	883.7930908203126	-632.2816772460935	1826.75927734375	855.8256835937501	-603.817932128906	1561.323974609375	1054.236450195312	-211.0980834960935	1430.853271484375	1026.655395507812	-373.5294494628904	1549.085693359375	1047.24658203125	-556.0390014648435	1525.640991210938	900.5040893554688	-194.1862945556639	1637.2470703125	631.3988037109375	-210.2361602783202	1686.583984375	663.155517578125	-205.560836791992	1719.835815429688	566.69384765625	-240.7476043701171	1658.224243164062	554.9824829101562	-232.3549194335936	1727.73486328125	339.2311706542969	-228.2702178955077	1787.667846679688	342.4944458007813	-240.1494598388671	1817.357299804688	263.1854248046876	-257.7425231933593	1755.7568359375	243.3152008056641	-250.2975158691406	1808.951293945312	36.41460037231453	-337.9303588867188	1967.85498046875	65.53639221191412	-248.8656768798828	2010.007446289062	106.7959136962891	-333.8048400878906	1500.978393554688	943.8743286132814	-555.6518554687498	1504.971801757812	651.9951782226564	-538.3691406249999	1458.875366210938	685.7852172851564	-551.2073974609374	1418.26513671875	594.1375122070314	-517.6956176757811	1479.760009765625	578.0672607421876	-512.7276611328124	1354.888671875	330.7586364746095	-495.0283813476562	1294.27587890625	328.1499328613282	-497.6171264648437	1265.2666015625	247.8823547363282	-477.2368469238281	1327.387817382812	234.809295654297	-468.9151611328124	1170.295654296875	80.60681152343759	-400.1554565429688	1336.933715820312	19.96028709411631	-468.1323852539062	1375.087768554688	28.04062080383309	-361.6476745605469	
266	1.06	1689.280517578125	1722.434692382812	-384.9887695312496	1629.7265625	1668.0966796875	-308.2463684082027	1632.566162109375	1672.86962890625	-456.1584472656246	1494.082763671875	1501.726196289062	-387.7263793945309	1419.70263671875	1304.782348632812	-322.7629394531247	1420.604858398438	1309.856689453125	-463.2391357421872	1672.24560546875	1336.088745117188	-381.2321472167966	1564.586791992188	1451.39453125	-211.7467651367184	1508.882202148438	1297.021484375	-120.3667373657224	1562.002685546875	1206.829467773438	-109.910949707031	1441.168090820312	1220.405883789062	-109.6704406738279	1478.475463867188	1109.531616210938	-92.71437072753882	1458.533447265625	1103.93115234375	-174.0040740966794	1584.548583984375	927.7002563476562	-91.51036071777324	1626.865356445312	864.55712890625	-131.0907287597654	1558.171630859375	837.1206665039062	-96.35652923583966	1629.3603515625	774.6771240234375	-77.92730712890608	1582.361328125	1454.536743164063	-550.7306518554684	1577.015258789062	1291.728881835938	-649.4529418945309	1643.836181640625	1215.185913085938	-642.937072753906	1527.601806640625	1211.677856445313	-684.9761962890623	1595.76806640625	1111.797119140625	-689.056213378906	1536.517578125	1096.812744140625	-638.5841064453123	1733.869995117188	968.8769531250001	-633.907775878906	1770.952758789062	926.7462768554689	-573.2227783203123	1743.05810546875	882.8912353515626	-631.9787597656248	1833.32177734375	855.1955566406251	-603.5513916015623	1567.222045898438	1052.920654296875	-210.8632354736326	1436.540649414062	1025.526611328125	-373.1533508300779	1554.777099609375	1046.376708984375	-555.5463867187498	1531.565795898438	899.22900390625	-194.2265624999998	1643.673706054688	630.4061279296875	-210.1881256103514	1693.11328125	662.5275268554688	-205.6298980712889	1726.309326171875	566.05419921875	-241.2609558105468	1664.896850585938	554.122314453125	-232.499053955078	1735.540649414062	338.6710510253907	-228.5867309570312	1795.343505859375	342.2091369628907	-240.5648956298827	1825.754272460938	262.5666503906251	-259.2623901367187	1764.098754882812	242.7659454345704	-250.9155731201171	1818.762573242188	36.43919754028328	-339.0242919921875	1977.737548828125	66.44712829589849	-250.1404876708984	2019.281494140625	108.5842895507813	-334.9602966308594	1506.538696289062	943.1888427734376	-555.5744628906248	1509.920776367188	651.3551025390626	-538.5014648437499	1463.90869140625	685.1437377929689	-551.6345825195311	1423.079833984375	593.6295166015626	-518.0516967773436	1484.576293945312	577.4182128906251	-512.8111572265624	1357.931274414062	330.6875305175782	-495.4286499023437	1297.051391601562	328.6466064453126	-498.5302429199218	1267.311889648438	248.5052337646486	-477.8541259765624	1329.517944335938	234.8147888183595	-468.9162902832031	1170.750244140625	82.13049316406259	-400.8002624511719	1337.033325195312	19.93175888061534	-468.1813049316406	1375.031494140625	28.06249809265145	-361.6759643554688	
267	1.064	1695.200317382812	1721.394653320312	-384.1044311523434	1633.40283203125	1666.944213867188	-308.6078491210934	1638.5751953125	1671.826538085938	-455.6201171874996	1499.909912109375	1500.610961914062	-387.2578430175778	1426.062622070312	1303.613525390625	-322.326965332031	1426.474365234375	1308.90185546875	-462.9617614746091	1678.201782226562	1334.965942382812	-381.0596008300778	1570.396118164062	1450.19921875	-211.3773040771481	1514.578002929688	1295.747680664062	-120.3494186401364	1567.715576171875	1205.535400390625	-109.5957031249997	1446.854614257812	1219.201904296875	-109.5794143676755	1483.836669921875	1108.292236328125	-92.54532623290991	1464.258544921875	1102.73291015625	-174.1098785400388	1590.21142578125	926.1994018554688	-91.49028015136699	1632.558227539062	863.2603759765625	-130.9718170166014	1563.75	835.6428833007812	-96.24936676025372	1635.048706054688	773.3378295898438	-77.84395599365217	1588.187744140625	1453.561157226563	-550.4279174804684	1583.091918945312	1290.6533203125	-648.9748535156247	1650.066284179688	1214.28466796875	-642.2384643554685	1533.6826171875	1210.64453125	-684.5607910156248	1601.939575195312	1110.856811523438	-688.7519531249998	1542.859497070312	1095.709838867188	-637.965637207031	1740.363525390625	967.8888549804689	-633.5363159179685	1777.203735351562	925.9044189453126	-572.9460449218748	1749.55322265625	882.1276855468751	-631.792785644531	1839.772827148438	854.4083862304689	-603.3275146484373	1573.363525390625	1051.553833007812	-210.5355987548826	1442.390014648438	1024.284301757812	-372.6430664062498	1560.13916015625	1045.6240234375	-555.7896728515623	1537.500854492188	897.97998046875	-193.9958343505857	1650.273071289062	629.4486083984375	-210.002716064453	1699.645141601562	661.7018432617188	-205.6946563720702	1732.879028320312	565.5618286132812	-241.7340698242186	1671.573364257812	553.2477416992188	-232.6051483154296	1743.094604492188	337.6343994140626	-229.0538787841796	1802.81884765625	341.5871887207032	-241.3390197753905	1833.660400390625	262.6948547363282	-259.7108459472656	1772.175903320312	242.1602172851563	-251.4739227294921	1828.145141601562	36.331829071045	-340.2363891601562	1986.795776367188	67.12541198730474	-251.3680572509765	2028.018310546875	109.7271728515626	-336.256103515625	1512.121215820312	942.2622680664064	-555.3469238281248	1514.872314453125	650.4332275390626	-538.4620971679686	1469.204467773438	684.5115356445314	-552.0426025390624	1427.8369140625	592.9046630859376	-517.9514770507811	1489.295654296875	576.6298217773439	-512.6701660156249	1360.950073242188	330.6235961914064	-495.5158081054687	1300.398193359375	328.9556579589845	-498.2448730468749	1269.743896484375	249.2291717529298	-478.2350158691406	1331.79736328125	234.9396972656251	-469.2452087402343	1171.334106445312	83.79458618164071	-401.2659606933594	1337.088134765625	19.93750190734874	-468.24365234375	1374.956787109375	28.05240058898934	-361.698486328125	
268	1.068	1701.092407226562	1720.369750976562	-383.6852111816402	1639.629150390625	1665.826782226562	-307.9064331054684	1644.30712890625	1670.886352539062	-455.0254211425777	1505.693603515625	1499.635131835938	-386.826263427734	1431.405151367188	1302.451538085938	-322.0758972167966	1432.319580078125	1307.947875976562	-462.6246948242185	1684.155395507812	1334.094970703125	-380.6064147949216	1576.175537109375	1449.121948242188	-210.9473724365231	1520.392578125	1294.495239257812	-120.0894546508786	1573.313354492188	1204.153198242188	-108.5517959594724	1452.64892578125	1217.689208984375	-109.1527252197263	1490.1259765625	1107.126342773438	-92.4416122436521	1469.970703125	1101.4140625	-174.2443542480466	1595.915405273438	925.0016479492188	-91.3537597656248	1638.386108398438	862.0289306640625	-131.5985412597654	1569.443969726562	834.4383544921875	-96.32373809814435	1640.645141601562	772.0130615234375	-77.57710266113264	1594.027221679688	1452.58740234375	-550.0776977539059	1589.056274414062	1289.7744140625	-648.4672851562497	1656.0947265625	1213.35498046875	-641.788635253906	1539.987182617188	1209.70166015625	-684.036437988281	1608.130493164062	1109.990356445313	-688.1486816406248	1549.16357421875	1094.681030273438	-637.7741699218748	1746.7255859375	967.1083984375001	-633.1339111328123	1783.475952148438	925.0296630859376	-572.6901245117185	1755.972290039062	881.3193359375001	-631.4240112304685	1846.299682617188	853.5596313476564	-603.0277709960935	1579.659057617188	1050.405639648438	-210.4442291259763	1448.095092773438	1023.264343261719	-372.5175781249998	1565.805908203125	1044.662231445313	-555.4664306640623	1543.781982421875	897.0089721679688	-194.0715484619139	1656.950439453125	628.8765869140625	-209.9375610351561	1706.081420898438	661.0869750976562	-205.5960693359374	1739.603149414062	565.086181640625	-242.2016296386718	1678.355224609375	552.5490112304688	-232.7288360595702	1750.585205078125	336.9965209960938	-229.455352783203	1810.296752929688	341.2804260253907	-241.7475280761718	1841.508666992188	262.5326538085938	-259.9115600585937	1780.10302734375	241.4474029541016	-252.5398864746093	1836.720458984375	36.07235336303719	-341.1580505371094	1995.513061523438	67.47705078125006	-252.5231323242187	2036.280029296875	110.6649932861329	-337.2845458984375	1517.7470703125	941.4315795898439	-554.8319702148435	1520.16796875	649.5533447265626	-538.5153808593749	1474.193115234375	683.9337768554689	-551.9107055664061	1433.024047851562	592.6511230468751	-518.4150390624999	1494.398681640625	575.9339599609376	-513.0167236328124	1364.212524414062	330.5374145507814	-495.7813415527343	1303.529541015625	329.2391357421876	-498.9027709960937	1272.1767578125	250.0901947021486	-478.6542663574218	1333.826782226562	235.1260070800782	-469.0012207031249	1171.9169921875	85.41344451904305	-402.0837097167969	1337.153198242188	19.93849754333506	-468.2938842773438	1374.940673828125	28.08330345153817	-361.7337646484375	
